<?xml version="1.0" encoding="UTF-8"?>
<svg width="103px" height="82px" viewBox="0 0 103 82" version="1.1" xmlns="http://www.w3.org/2000/svg" xmlns:xlink="http://www.w3.org/1999/xlink">
    <!-- Generator: Sketch 58 (84663) - https://sketch.com -->
    <title>Combined Shape</title>
    <desc>Created with Sketch.</desc>
    <g id="UI" stroke="none" stroke-width="1" fill="none" fill-rule="evenodd">
        <g id="Command-Demo-2" transform="translate(-112.000000, -78.000000)" fill="#353434">
            <g id="Group" transform="translate(40.000000, 25.000000)">
                <path d="M123.5,53 C151.942665,53 175,68.6700338 175,88 C175,99.8721679 166.302249,110.363726 153.001074,116.692121 L153,135 L139.318556,121.31798 C134.334495,122.410085 129.018616,123 123.5,123 C95.0573354,123 72,107.329966 72,88 C72,68.6700338 95.0573354,53 123.5,53 Z M100,83 C97.2385763,83 95,85.2385763 95,88 C95,90.7614237 97.2385763,93 100,93 C102.761424,93 105,90.7614237 105,88 C105,85.2385763 102.761424,83 100,83 Z M124,83 C121.238576,83 119,85.2385763 119,88 C119,90.7614237 121.238576,93 124,93 C126.761424,93 129,90.7614237 129,88 C129,85.2385763 126.761424,83 124,83 Z M148,83 C145.238576,83 143,85.2385763 143,88 C143,90.7614237 145.238576,93 148,93 C150.761424,93 153,90.7614237 153,88 C153,85.2385763 150.761424,83 148,83 Z" id="Combined-Shape"></path>
            </g>
        </g>
    </g>
</svg>